<svg width="32" height="32" viewBox="0 0 32 32" fill="none" xmlns="http://www.w3.org/2000/svg">
<g id="Lock" clip-path="url(#clip0_149_514)">
<path id="Vector" d="M23.9987 10.6673H22.6654V8.00065C22.6654 4.32065 19.6787 1.33398 15.9987 1.33398C12.3187 1.33398 9.33203 4.32065 9.33203 8.00065V10.6673H7.9987C6.53203 10.6673 5.33203 11.8673 5.33203 13.334V26.6673C5.33203 28.134 6.53203 29.334 7.9987 29.334H23.9987C25.4654 29.334 26.6654 28.134 26.6654 26.6673V13.334C26.6654 11.8673 25.4654 10.6673 23.9987 10.6673ZM15.9987 22.6673C14.532 22.6673 13.332 21.4673 13.332 20.0007C13.332 18.534 14.532 17.334 15.9987 17.334C17.4654 17.334 18.6654 18.534 18.6654 20.0007C18.6654 21.4673 17.4654 22.6673 15.9987 22.6673ZM20.132 10.6673H11.8654V8.00065C11.8654 5.72065 13.7187 3.86732 15.9987 3.86732C18.2787 3.86732 20.132 5.72065 20.132 8.00065V10.6673Z" fill="#ACACAC"/>
</g>
<defs>
<clipPath id="clip0_149_514">
<rect width="32" height="32" fill="white"/>
</clipPath>
</defs>
</svg>
