<svg width="32" height="33" viewBox="0 0 32 33" fill="none" xmlns="http://www.w3.org/2000/svg">
<g id="Phone iphone" clip-path="url(#clip0_149_563)">
<path id="Vector" d="M20.668 1.65625H10.0013C8.1613 1.65625 6.66797 3.14958 6.66797 4.98958V27.6563C6.66797 29.4963 8.1613 30.9896 10.0013 30.9896H20.668C22.508 30.9896 24.0013 29.4963 24.0013 27.6563V4.98958C24.0013 3.14958 22.508 1.65625 20.668 1.65625ZM15.3346 29.6563C14.228 29.6563 13.3346 28.7629 13.3346 27.6563C13.3346 26.5496 14.228 25.6563 15.3346 25.6563C16.4413 25.6563 17.3346 26.5496 17.3346 27.6563C17.3346 28.7629 16.4413 29.6563 15.3346 29.6563ZM21.3346 24.3229H9.33464V5.65625H21.3346V24.3229Z" fill="#ACACAC"/>
</g>
<defs>
<clipPath id="clip0_149_563">
<rect width="32" height="32" fill="white" transform="translate(0 0.322266)"/>
</clipPath>
</defs>
</svg>
