<svg width="16" height="16" viewBox="0 0 16 16" fill="none" xmlns="http://www.w3.org/2000/svg">
<g id="Group">
<path id="Vector" d="M9.41441 7.99998L15.7075 1.70758C16.0981 1.31694 16.0981 0.683589 15.7075 0.29298C15.3169 -0.09766 14.6835 -0.09766 14.2929 0.29298L8.00046 6.58603L1.70807 0.29298C1.31743 -0.09766 0.684077 -0.09766 0.293468 0.29298C-0.0971405 0.68362 -0.0971718 1.31697 0.293468 1.70758L6.58652 7.99998L0.293468 14.2924C-0.0971718 14.683 -0.0971718 15.3164 0.293468 15.707C0.684109 16.0976 1.31746 16.0976 1.70807 15.707L8.00046 9.41392L14.2929 15.707C14.6835 16.0976 15.3169 16.0976 15.7075 15.707C16.0981 15.3164 16.0981 14.683 15.7075 14.2924L9.41441 7.99998Z" fill="#9BA4AB"/>
</g>
</svg>
